name D:\school\WTK\thesis\model\3dpredictsim\Results\MidTarsalJoint\Fal_s1_bCst_PF_Natali2010_ls150_MT_k150_MTP_T5_ig23.mot
datacolumns 128
datarows 4
range 0.00000000 0.03501225
endheader
time	pelvis_tilt	pelvis_list	pelvis_rotation	pelvis_tx	pelvis_ty	pelvis_tz	hip_flexion_l	hip_adduction_l	hip_rotation_l	hip_flexion_r	hip_adduction_r	hip_rotation_r	knee_angle_l	knee_angle_r	ankle_angle_l	ankle_angle_r	subtalar_angle_l	subtalar_angle_r	mtj_angle_l	mtj_angle_r	mtp_angle_l	mtp_angle_r	lumbar_extension	lumbar_bending	lumbar_rotation	arm_flex_l	arm_add_l	arm_rot_l	arm_flex_r	arm_add_r	arm_rot_r	elbow_flex_l	elbow_flex_r	pro_sup_l	pro_sup_r	glut_med1_l/activation	glut_med2_l/activation	glut_med3_l/activation	glut_min1_l/activation	glut_min2_l/activation	glut_min3_l/activation	semimem_l/activation	semiten_l/activation	bifemlh_l/activation	bifemsh_l/activation	sar_l/activation	add_long_l/activation	add_brev_l/activation	add_mag1_l/activation	add_mag2_l/activation	add_mag3_l/activation	tfl_l/activation	pect_l/activation	grac_l/activation	glut_max1_l/activation	glut_max2_l/activation	glut_max3_l/activation	iliacus_l/activation	psoas_l/activation	quad_fem_l/activation	gem_l/activation	peri_l/activation	rect_fem_l/activation	vas_med_l/activation	vas_int_l/activation	vas_lat_l/activation	med_gas_l/activation	lat_gas_l/activation	soleus_l/activation	tib_post_l/activation	flex_dig_l/activation	flex_hal_l/activation	tib_ant_l/activation	per_brev_l/activation	per_long_l/activation	per_tert_l/activation	ext_dig_l/activation	ext_hal_l/activation	ercspn_l/activation	intobl_l/activation	extobl_l/activation	glut_med1_r/activation	glut_med2_r/activation	glut_med3_r/activation	glut_min1_r/activation	glut_min2_r/activation	glut_min3_r/activation	semimem_r/activation	semiten_r/activation	bifemlh_r/activation	bifemsh_r/activation	sar_r/activation	add_long_r/activation	add_brev_r/activation	add_mag1_r/activation	add_mag2_r/activation	add_mag3_r/activation	tfl_r/activation	pect_r/activation	grac_r/activation	glut_max1_r/activation	glut_max2_r/activation	glut_max3_r/activation	iliacus_r/activation	psoas_r/activation	quad_fem_r/activation	gem_r/activation	peri_r/activation	rect_fem_r/activation	vas_med_r/activation	vas_int_r/activation	vas_lat_r/activation	med_gas_r/activation	lat_gas_r/activation	soleus_r/activation	tib_post_r/activation	flex_dig_r/activation	flex_hal_r/activation	tib_ant_r/activation	per_brev_r/activation	per_long_r/activation	per_tert_r/activation	ext_dig_r/activation	ext_hal_r/activation	ercspn_r/activation	intobl_r/activation	extobl_r/activation	
          0.00000000	         -2.92989375	         -2.37691626	          5.94688945	          0.00000000	          0.91981767	         -0.00168108	        -16.01435014	         -1.44808791	          7.63404416	         28.62636771	          3.65833337	         -2.27432880	        -11.03800628	         -9.57381669	         -4.99388227	          4.58487917	         10.78180252	         -3.97691373	          6.62439386	         -0.31700219	          8.69011072	          1.01964852	         -1.96456336	          0.64759018	         -2.27911201	          4.94733150	        -13.46140784	         17.29773766	         -5.52373629	        -13.45360476	          7.10940596	         37.25393090	         15.58635887	         86.51662706	         86.51662706	          0.25009509	          0.10179620	          0.06355236	          0.28223654	          0.19993670	          0.10468984	          0.05000110	          0.05000017	          0.05000013	          0.05000035	          0.10673674	          0.09819352	          0.07301711	          0.05000175	          0.05000223	          0.05000056	          0.30113312	          0.11866635	          0.05000205	          0.05000099	          0.05000060	          0.05000056	          0.38553929	          0.57875607	          0.05000019	          0.05000063	          0.05000166	          0.27055715	          0.05000136	          0.05000143	          0.08102520	          0.25133511	          0.34484324	          0.33077653	          0.22342421	          0.19748127	          0.26821795	          0.05000001	          0.05972576	          0.14029481	          0.05000011	          0.05000002	          0.05000011	          0.05000003	          0.05000026	          0.07034379	          0.05972561	          0.05972560	          0.05000012	          0.05972569	          0.05972567	          0.05794298	          0.15282156	          0.09306197	          0.18751714	          0.06213541	          0.05000025	          0.17350190	          0.34101432	          0.10634721	          0.23364149	          0.11112021	          0.05000017	          0.07201623	          0.15454499	          0.05000063	          0.05000117	          0.13849003	          0.05972583	          0.05753368	          0.32013220	          0.30095000	          0.13567165	          0.05000053	          0.12922901	          0.12785419	          0.11301945	          0.07403095	          0.07500601	          0.06455611	          0.05000005	          0.05973017	          0.05000046	          0.49173862	          0.25028497	          0.16148775	          0.16846079	          0.45895221	          0.22391931	          0.05003633	          0.11289637	          0.09808313	
          0.01167075	         -2.92936465	         -2.45160403	          6.19481567	          0.01792345	          0.91897606	         -0.00149658	        -15.90075325	         -1.74681448	          7.46281442	         27.87992005	          4.07221763	         -2.02672550	        -12.88510683	         -9.91333195	         -5.60170147	          3.89625468	         11.86885085	         -4.35648557	          5.13044381	         -0.41930123	         10.99562766	          1.00476283	         -1.75287183	          0.84237357	         -2.35870056	          4.55612162	        -13.48033509	         17.55274768	         -6.48116494	        -13.44979394	          6.88143659	         38.48529246	         15.26633906	         86.51662706	         86.51662706	          0.20937005	          0.08521992	          0.05698287	          0.23627768	          0.16737940	          0.08764238	          0.05000496	          0.05000165	          0.05000331	          0.05000011	          0.08935607	          0.19388818	          0.06112766	          0.05972888	          0.05972640	          0.05972600	          0.25209721	          0.09934684	          0.05972565	          0.05468219	          0.05972494	          0.05972600	          0.32275880	          0.54464746	          0.05972649	          0.05972738	          0.05000076	          0.22650008	          0.14519965	          0.14521589	          0.11227727	          0.21040810	          0.28868954	          0.27691341	          0.18704222	          0.16532389	          0.22454190	          0.05101571	          0.05000021	          0.14835443	          0.05000034	          0.05231597	          0.05000046	          0.06887865	          0.06847518	          0.07134305	          0.05000001	          0.05000004	          0.12069053	          0.05000007	          0.05000007	          0.05000006	          0.12793645	          0.07790801	          0.15698219	          0.05201774	          0.05972467	          0.14524923	          0.33726185	          0.36184556	          0.23879137	          0.11576935	          0.05000034	          0.08518353	          0.17080053	          0.06958405	          0.10862853	          0.13652440	          0.05000026	          0.05000060	          0.54612686	          0.25194383	          0.11357916	          0.05972560	          0.10821930	          0.11189181	          0.09462018	          0.07056518	          0.07134277	          0.06208125	          0.05972364	          0.05000401	          0.05972318	          0.49925759	          0.30539100	          0.20800647	          0.14102902	          0.43433496	          0.18745674	          0.05000000	          0.09451251	          0.08211144	
          0.02334150	         -2.92339771	         -2.53292288	          6.40574072	          0.03616216	          0.91808061	         -0.00134351	        -15.73475317	         -2.04287831	          7.28193602	         27.00506696	          4.35807007	         -1.75148870	        -14.80094397	        -10.33675705	         -6.31177608	          3.35033525	         12.89771401	         -4.74957508	          3.40963371	         -0.56938648	         13.46028199	          1.04176905	         -1.51956907	          1.05192465	         -2.42559611	          4.07086416	        -13.49794258	         17.70816554	         -7.45789860	        -13.45934810	          6.72109555	         39.72111200	         14.98362222	         86.51662706	         86.51662706	          0.34366535	          0.07134294	          0.05000024	          0.32924507	          0.14012419	          0.07337097	          0.05000152	          0.05000016	          0.05000012	          0.05000181	          0.08521925	          0.16231578	          0.05117384	          0.05000281	          0.05000090	          0.05000044	          0.22580803	          0.08317083	          0.05000122	          0.05000134	          0.05000081	          0.05000055	          0.27020142	          0.50968725	          0.05000078	          0.05000181	          0.05000099	          0.18961718	          0.12155563	          0.12156923	          0.09399427	          0.17614559	          0.24167981	          0.23182128	          0.15658459	          0.13840291	          0.18797794	          0.09372592	          0.12885470	          0.17039916	          0.05000034	          0.12185016	          0.05000111	          0.06331266	          0.05732480	          0.05972567	          0.26554288	          0.27711717	          0.31769980	          0.46570547	          0.27766016	          0.20754464	          0.11282471	          0.06522265	          0.13254095	          0.05000169	          0.05000080	          0.12159711	          0.28234272	          0.30292332	          0.19990729	          0.13434922	          0.05000034	          0.07131292	          0.14298784	          0.15569520	          0.13424516	          0.11429333	          0.05000091	          0.05000027	          0.45719648	          0.21091780	          0.23626548	          0.05000013	          0.09059768	          0.09367220	          0.07921287	          0.05907448	          0.05972547	          0.05197207	          0.05000009	          0.05000031	          0.05000041	          0.57589947	          0.34814391	          0.17413519	          0.41369613	          0.51320878	          0.16965975	          0.06930219	          0.10481977	          0.06874055	
          0.03501225	         -2.91410507	         -2.60701887	          6.57775781	          0.05447135	          0.91718127	         -0.00116418	        -15.46587657	         -2.32069760	          7.11814358	         26.09482791	          4.60917582	         -1.47895528	        -16.85345672	        -10.72829344	         -7.13386451	          2.87609704	         13.87340327	         -5.15189168	          1.56290622	         -0.47359546	         15.88241705	          1.07161359	         -1.28980658	          1.25897600	         -2.48023501	          3.53821645	        -13.52380778	         17.79480283	         -8.40222036	        -13.47134527	          6.63471696	         40.93238525	         14.70862104	         86.51662706	         86.51662706	          0.28770353	          0.05972563	          0.05000017	          0.27563143	          0.11730668	          0.06142343	          0.05000115	          0.05000013	          0.05000017	          0.05000007	          0.07134243	          0.15478558	          0.11800180	          0.05001534	          0.05031541	          0.12558579	          0.18903792	          0.06963011	          0.05000052	          0.05000446	          0.05000292	          0.05000264	          0.22620228	          0.44069967	          0.05000034	          0.05000112	          0.05000019	          0.15874023	          0.10179631	          0.10179623	          0.09659801	          0.14746233	          0.20232507	          0.19407187	          0.13108663	          0.11586570	          0.15736799	          0.17347477	          0.15246542	          0.14265474	          0.13412535	          0.19168865	          0.09740970	          0.08566262	          0.05000002	          0.05000007	          0.37750064	          0.38098307	          0.40686366	          0.38987090	          0.23244696	          0.26149073	          0.09847058	          0.09106705	          0.11167396	          0.05000119	          0.05000073	          0.10179646	          0.23636653	          0.25359601	          0.16735727	          0.16550385	          0.05000032	          0.05970102	          0.11970428	          0.24795598	          0.19321128	          0.15986166	          0.05000009	          0.05000010	          0.38274738	          0.17657236	          0.19779307	          0.05000008	          0.13628596	          0.14609112	          0.10250395	          0.05000003	          0.05000007	          0.05000001	          0.05000002	          0.05000013	          0.05000013	          0.63457251	          0.29148120	          0.14941041	          0.58359469	          0.54529966	          0.30871017	          0.08359964	          0.08775109	          0.05754697	
